<svg width="1764" height="300" viewBox="0 0 1764 300" fill="none" xmlns="http://www.w3.org/2000/svg">
<path fill-rule="evenodd" clip-rule="evenodd" d="M1635 0C1641.57 0 1647.94 0.868554 1654 2.49714V45.3342C1650.12 43.8269 1645.91 43 1641.5 43C1622.45 43 1607 58.4462 1607 77.5C1607 77.6669 1607 77.8336 1607 78H1607V90H1654H1655.19L1647.43 134H1607V140.437V290H1562V134H1525V90H1562V73C1562 32.6832 1594.68 0 1635 0Z" fill="black"/>
<path fill-rule="evenodd" clip-rule="evenodd" d="M1755.43 134L1763.19 90H1722V49H1677V218H1677.01C1677 218.333 1677 218.666 1677 219C1677 259.317 1709.68 292 1750 292C1753.22 292 1756.39 291.792 1759.5 291.387V248.871C1758.51 248.957 1757.51 249 1756.5 249C1737.95 249 1722.82 234.358 1722.03 216H1722V214.5V151.563V134H1755.43Z" fill="black"/>
<path fill-rule="evenodd" clip-rule="evenodd" d="M1412.5 292C1469.11 292 1515 246.333 1515 190C1515 133.667 1469.11 88 1412.5 88C1355.89 88 1310 133.667 1310 190C1310 246.333 1355.89 292 1412.5 292ZM1413 248C1443.38 248 1468 222.033 1468 190C1468 157.967 1443.38 132 1413 132C1382.62 132 1358 157.967 1358 190C1358 222.033 1382.62 248 1413 248Z" fill="black"/>
<path fill-rule="evenodd" clip-rule="evenodd" d="M448 93.7129V117.341C432.67 100.003 411.477 88 385.5 88C328.891 88 288 133.667 288 190C288 246.333 328.891 292 385.5 292C411.477 292 432.67 279.997 448 262.659V290H493V85.7782L448 93.7129ZM391 248C429 248 446 218 446 190C446 162 427.5 132 391 132C360.624 132 336 157.967 336 190C336 222.033 360.624 248 391 248Z" fill="black"/>
<path fill-rule="evenodd" clip-rule="evenodd" d="M209 179.381V14.5008L261 5.33175V226.491V290V300L63 120.619V285.534L11 294.703V73.5088V10V0L209 179.381Z" fill="black"/>
<path fill-rule="evenodd" clip-rule="evenodd" d="M1156.97 182.686C1165.69 192.567 1177.44 199.885 1190.03 203.491C1228.82 216.228 1235 220.786 1235 232C1235 244.5 1224.48 247.5 1211.5 247.5C1198.52 247.5 1182.5 236.5 1182.5 216H1181.44L1135.84 224.041C1139.74 274.132 1176.41 292 1218 292C1253.9 292 1283 264.466 1283 230.5C1283 216.336 1277.94 203.291 1269.44 192.894C1258.5 179.527 1241.88 170.538 1223 169.179V169.079C1222.84 169.053 1222.67 169.026 1222.5 169C1197 165 1190 152.075 1190 146C1190 135 1198.73 133 1209.5 133C1220.19 133 1230.84 137.432 1231 155.579L1276.56 147.545C1272.61 109.808 1243.82 88 1207.5 88C1168 88 1142 113.296 1142 144.5C1142 159.091 1147.77 172.205 1156.84 182.538L1156.97 182.686Z" fill="black"/>
<path fill-rule="evenodd" clip-rule="evenodd" d="M963 13.8942V290H1008V191.255L1010.69 195.097L1031.98 225.502L1077.14 290H1133.3L1060.06 185.403L1060.67 184.531L1060.06 183.66L1125.64 89.9999H1070.7L1032.59 144.432L1013.89 171.146L1008 179.551V5.95947L963 13.8942Z" fill="black"/>
<path fill-rule="evenodd" clip-rule="evenodd" d="M592.93 282.09L511.393 90H560.279L617.373 224.506L674.467 90H723.354L641.816 282.09L638.459 290H596.288L592.93 282.09Z" fill="black"/>
<path fill-rule="evenodd" clip-rule="evenodd" d="M931 190C931 194.404 930.72 198.743 930.175 203H882.613H813H775.387C780.984 228.773 802.863 248 829 248C846.823 248 862.666 239.06 872.716 225.2L921.126 233.736C904.671 268.185 869.38 292 828.5 292C771.891 292 726 246.333 726 190C726 133.667 771.891 88 828.5 88C885.109 88 931 133.667 931 190ZM779.822 164C788.862 145.023 807.489 132 829 132C850.511 132 869.138 145.023 878.178 164H779.822Z" fill="black"/>
</svg>
