<svg width="194" height="48" viewBox="0 0 194 48" fill="none" xmlns="http://www.w3.org/2000/svg">
<rect width="194" height="48" rx="24" fill="#4046FF"/>
<path d="M23.032 30C22.4987 30 22.0053 30 21.552 30C21.0987 30 20.696 30 20.344 30C19.992 30 19.704 30 19.48 30C19.48 29.3653 19.48 28.7547 19.48 28.168C19.48 27.5813 19.48 26.936 19.48 26.232V22.4C19.48 21.6907 19.48 21.0373 19.48 20.44C19.48 19.8427 19.48 19.2267 19.48 18.592C20.0827 18.592 20.7413 18.592 21.456 18.592C22.176 18.592 22.9147 18.592 23.672 18.592C24.3387 18.592 24.904 18.656 25.368 18.784C25.8373 18.9067 26.2187 19.0853 26.512 19.32C26.8053 19.5493 27.0213 19.8293 27.16 20.16C27.2987 20.4907 27.368 20.864 27.368 21.28C27.368 21.7653 27.28 22.1893 27.104 22.552C26.928 22.9147 26.688 23.216 26.384 23.456C26.0853 23.696 25.744 23.8747 25.36 23.992V24.136C25.7547 24.2107 26.128 24.3493 26.48 24.552C26.832 24.7547 27.1173 25.0453 27.336 25.424C27.5547 25.7973 27.664 26.2773 27.664 26.864C27.664 27.312 27.5867 27.728 27.432 28.112C27.2827 28.4907 27.032 28.8213 26.68 29.104C26.3333 29.3867 25.8613 29.608 25.264 29.768C24.672 29.9227 23.928 30 23.032 30ZM20.896 28.8H23.144C23.8693 28.8 24.4533 28.7173 24.896 28.552C25.344 28.3867 25.6667 28.152 25.864 27.848C26.0667 27.544 26.168 27.1813 26.168 26.76C26.168 26.0613 25.9227 25.5627 25.432 25.264C24.9413 24.96 24.2533 24.808 23.368 24.808H20.576V23.648H23.368C23.9547 23.648 24.432 23.552 24.8 23.36C25.1733 23.168 25.4453 22.9173 25.616 22.608C25.7867 22.2987 25.872 21.96 25.872 21.592C25.872 20.968 25.6773 20.512 25.288 20.224C24.904 19.936 24.3307 19.792 23.568 19.792H20.896C20.896 20.256 20.896 20.7173 20.896 21.176C20.896 21.6347 20.896 22.1387 20.896 22.688V25.96C20.896 26.4987 20.896 26.992 20.896 27.44C20.896 27.888 20.896 28.3413 20.896 28.8ZM33.2881 30.176C32.3388 30.176 31.5575 29.9947 30.9441 29.632C30.3308 29.2693 29.8748 28.7733 29.5761 28.144C29.2775 27.5147 29.1281 26.7947 29.1281 25.984C29.1281 25.184 29.2748 24.4747 29.5681 23.856C29.8615 23.2373 30.2828 22.7547 30.8321 22.408C31.3815 22.056 32.0375 21.88 32.8001 21.88C33.4721 21.88 34.0481 22.0107 34.5281 22.272C35.0135 22.5333 35.3868 22.9173 35.6481 23.424C35.9095 23.9253 36.0401 24.5467 36.0401 25.288C36.0401 25.4853 36.0348 25.664 36.0241 25.824C36.0188 25.9787 36.0028 26.136 35.9761 26.296L34.8161 25.712C34.8268 25.6267 34.8321 25.5467 34.8321 25.472C34.8375 25.392 34.8401 25.3147 34.8401 25.24C34.8401 24.488 34.6535 23.9173 34.2801 23.528C33.9068 23.1333 33.4188 22.936 32.8161 22.936C32.3308 22.936 31.9121 23.0613 31.5601 23.312C31.2135 23.5573 30.9441 23.8987 30.7521 24.336C30.5601 24.7733 30.4641 25.272 30.4641 25.832V26.016C30.4641 26.6347 30.5708 27.168 30.7841 27.616C30.9975 28.064 31.3201 28.4107 31.7521 28.656C32.1895 28.896 32.7441 29.016 33.4161 29.016C33.6668 29.016 33.9308 28.9973 34.2081 28.96C34.4908 28.9173 34.7681 28.8533 35.0401 28.768C35.3175 28.6827 35.5815 28.5707 35.8321 28.432L35.8881 29.624C35.6855 29.736 35.4508 29.8347 35.1841 29.92C34.9175 30 34.6241 30.0613 34.3041 30.104C33.9841 30.152 33.6455 30.176 33.2881 30.176ZM29.6801 26.296V25.352L35.1681 25.304L35.9761 25.608V26.296H29.6801ZM38.7065 33.12C38.9198 32.5973 39.1332 32.0693 39.3465 31.536C39.5598 31.0027 39.7732 30.4747 39.9865 29.952V30.288C39.7838 29.744 39.5812 29.192 39.3785 28.632C39.1758 28.072 38.9758 27.528 38.7785 27L38.2505 25.56C38.0425 24.9893 37.8265 24.4053 37.6025 23.808C37.3838 23.2107 37.1705 22.6293 36.9625 22.064L38.3785 22.008C38.6078 22.696 38.8318 23.368 39.0505 24.024C39.2692 24.68 39.4932 25.3493 39.7225 26.032L40.5625 28.584H40.7065L41.6265 26.024C41.8665 25.3573 42.1038 24.696 42.3385 24.04C42.5732 23.384 42.8105 22.7253 43.0505 22.064H44.4505C44.2798 22.4907 44.1145 22.904 43.9545 23.304C43.7998 23.6987 43.6265 24.136 43.4345 24.616C43.2478 25.096 43.0238 25.6667 42.7625 26.328L41.8825 28.56C41.4825 29.5733 41.1412 30.4347 40.8585 31.144C40.5812 31.8533 40.3278 32.496 40.0985 33.072L38.7065 33.12ZM49.3705 30.176C48.7145 30.176 48.1358 30.064 47.6345 29.84C47.1385 29.6107 46.7225 29.3013 46.3865 28.912C46.0505 28.5227 45.7945 28.0773 45.6185 27.576C45.4478 27.0693 45.3625 26.5387 45.3625 25.984C45.3625 25.1893 45.5225 24.4853 45.8425 23.872C46.1678 23.2533 46.6265 22.7653 47.2185 22.408C47.8158 22.0507 48.5252 21.872 49.3465 21.872C49.9812 21.872 50.5438 21.976 51.0345 22.184C51.5252 22.392 51.9412 22.6827 52.2825 23.056C52.6238 23.4293 52.8825 23.8667 53.0585 24.368C53.2345 24.864 53.3225 25.4027 53.3225 25.984C53.3225 26.768 53.1625 27.4773 52.8425 28.112C52.5225 28.7467 52.0665 29.2507 51.4745 29.624C50.8878 29.992 50.1865 30.176 49.3705 30.176ZM49.3705 29.024C49.9518 29.024 50.4345 28.88 50.8185 28.592C51.2025 28.304 51.4905 27.928 51.6825 27.464C51.8745 27 51.9705 26.5067 51.9705 25.984C51.9705 25.3867 51.8638 24.8667 51.6505 24.424C51.4372 23.9813 51.1358 23.6373 50.7465 23.392C50.3572 23.1467 49.8958 23.024 49.3625 23.024C48.7865 23.024 48.3012 23.1547 47.9065 23.416C47.5118 23.6773 47.2132 24.032 47.0105 24.48C46.8132 24.928 46.7145 25.4293 46.7145 25.984C46.7145 26.5067 46.8105 27 47.0025 27.464C47.1998 27.928 47.4958 28.304 47.8905 28.592C48.2852 28.88 48.7785 29.024 49.3705 29.024ZM55.501 30C55.501 29.408 55.501 28.84 55.501 28.296C55.501 27.752 55.501 27.152 55.501 26.496V25.696C55.501 25.1093 55.501 24.5093 55.501 23.896C55.501 23.2827 55.501 22.672 55.501 22.064L56.653 21.984L56.693 23.456H56.837C57.0077 23.216 57.2263 22.9733 57.493 22.728C57.7597 22.4827 58.0743 22.28 58.437 22.12C58.7997 21.9547 59.2157 21.872 59.685 21.872C60.5277 21.872 61.1437 22.1147 61.533 22.6C61.9223 23.0853 62.117 23.7893 62.117 24.712C62.117 25.0587 62.117 25.3653 62.117 25.632C62.117 25.8987 62.117 26.1867 62.117 26.496C62.117 27.1253 62.117 27.72 62.117 28.28C62.117 28.8347 62.117 29.408 62.117 30H60.797C60.797 29.408 60.797 28.8373 60.797 28.288C60.797 27.7333 60.797 27.1547 60.797 26.552V25.048C60.797 24.4133 60.6823 23.9333 60.453 23.608C60.229 23.2827 59.821 23.12 59.229 23.12C58.8717 23.12 58.5463 23.192 58.253 23.336C57.9597 23.48 57.693 23.6747 57.453 23.92C57.2183 24.16 57.0077 24.4267 56.821 24.72V26.552C56.821 27.176 56.821 27.76 56.821 28.304C56.821 28.8427 56.821 29.408 56.821 30H55.501ZM67.4969 30.176C66.7395 30.176 66.1102 29.984 65.6089 29.6C65.1075 29.2107 64.7315 28.7013 64.4809 28.072C64.2302 27.4373 64.1049 26.7493 64.1049 26.008C64.1049 25.2187 64.2382 24.512 64.5049 23.888C64.7715 23.264 65.1582 22.7733 65.6649 22.416C66.1769 22.0533 66.7955 21.872 67.5209 21.872C67.8889 21.872 68.2249 21.9227 68.5289 22.024C68.8382 22.12 69.1102 22.2507 69.3449 22.416C69.5795 22.576 69.7742 22.7547 69.9289 22.952H70.0649V22.104C70.0649 21.432 70.0649 20.7813 70.0649 20.152C70.0649 19.5173 70.0649 18.896 70.0649 18.288L71.3849 18.128C71.3849 18.7733 71.3849 19.4213 71.3849 20.072C71.3849 20.7173 71.3849 21.3947 71.3849 22.104V26.496C71.3849 27.152 71.3849 27.752 71.3849 28.296C71.3849 28.84 71.3849 29.408 71.3849 30H70.2329L70.1689 28.912H70.0409C69.8329 29.184 69.6009 29.4133 69.3449 29.6C69.0889 29.7867 68.8062 29.928 68.4969 30.024C68.1929 30.1253 67.8595 30.176 67.4969 30.176ZM67.8969 28.992C68.2275 28.992 68.5262 28.9413 68.7929 28.84C69.0595 28.7333 69.2969 28.584 69.5049 28.392C69.7182 28.2 69.9049 27.968 70.0649 27.696V24.168C69.8995 23.928 69.7022 23.728 69.4729 23.568C69.2489 23.4027 69.0035 23.28 68.7369 23.2C68.4702 23.1147 68.1982 23.072 67.9209 23.072C67.3609 23.072 66.8995 23.2053 66.5369 23.472C66.1742 23.7387 65.9022 24.096 65.7209 24.544C65.5449 24.9867 65.4569 25.4773 65.4569 26.016C65.4569 26.5333 65.5422 27.0187 65.7129 27.472C65.8835 27.92 66.1475 28.2853 66.5049 28.568C66.8622 28.8507 67.3262 28.992 67.8969 28.992ZM79.9778 30.176C79.4498 30.176 79.0018 30.0853 78.6338 29.904C78.2658 29.7173 77.9858 29.4373 77.7938 29.064C77.6071 28.6853 77.5138 28.2027 77.5138 27.616C77.5138 27.152 77.5138 26.6933 77.5138 26.24C77.5138 25.7813 77.5138 25.3333 77.5138 24.896C77.5138 24.4533 77.5138 24.0293 77.5138 23.624C77.5138 23.2133 77.5138 22.8213 77.5138 22.448C77.5138 21.904 77.5138 21.4 77.5138 20.936C77.5138 20.472 77.5138 19.9893 77.5138 19.488L78.8178 19.2C78.8178 19.5947 78.8178 19.96 78.8178 20.296C78.8178 20.632 78.8178 20.9707 78.8178 21.312C78.8178 21.6533 78.8178 22.032 78.8178 22.448V27.304C78.8178 27.8747 78.9378 28.304 79.1778 28.592C79.4231 28.88 79.7964 29.024 80.2977 29.024C80.4951 29.024 80.7111 28.992 80.9458 28.928C81.1804 28.8587 81.3884 28.752 81.5698 28.608L81.6818 29.768C81.5751 29.848 81.4311 29.92 81.2498 29.984C81.0684 30.0427 80.8684 30.088 80.6498 30.12C80.4311 30.1573 80.2071 30.176 79.9778 30.176ZM75.9858 23.112V22.064H81.6018V23.112C81.0684 23.112 80.5298 23.112 79.9858 23.112C79.4471 23.112 78.9218 23.112 78.4098 23.112H77.8658H75.9858ZM83.5323 30C83.5323 29.408 83.5323 28.84 83.5323 28.296C83.5323 27.752 83.5323 27.152 83.5323 26.496V22.104C83.5323 21.432 83.5323 20.7787 83.5323 20.144C83.5323 19.5093 83.5323 18.8907 83.5323 18.288L84.8523 18.128C84.8523 18.7627 84.8523 19.408 84.8523 20.064C84.8523 20.7147 84.8523 21.3947 84.8523 22.104V23.384H84.9963C85.1563 23.16 85.3616 22.9307 85.6123 22.696C85.8683 22.4613 86.1696 22.2667 86.5163 22.112C86.8683 21.952 87.2683 21.872 87.7163 21.872C88.5589 21.872 89.1749 22.1147 89.5643 22.6C89.9536 23.0853 90.1483 23.7893 90.1483 24.712C90.1483 25.0587 90.1483 25.3653 90.1483 25.632C90.1483 25.8987 90.1483 26.1867 90.1483 26.496C90.1483 27.1253 90.1483 27.72 90.1483 28.28C90.1483 28.8347 90.1483 29.408 90.1483 30H88.8283C88.8283 29.408 88.8283 28.8373 88.8283 28.288C88.8283 27.7333 88.8283 27.1547 88.8283 26.552V25.048C88.8283 24.4133 88.7136 23.9333 88.4843 23.608C88.2603 23.2827 87.8523 23.12 87.2603 23.12C86.9029 23.12 86.5776 23.192 86.2843 23.336C85.9909 23.48 85.7243 23.6747 85.4843 23.92C85.2496 24.16 85.0389 24.4267 84.8523 24.72V26.552C84.8523 27.176 84.8523 27.76 84.8523 28.304C84.8523 28.8427 84.8523 29.408 84.8523 30H83.5323ZM96.2881 30.176C95.3388 30.176 94.5575 29.9947 93.9441 29.632C93.3308 29.2693 92.8748 28.7733 92.5761 28.144C92.2775 27.5147 92.1281 26.7947 92.1281 25.984C92.1281 25.184 92.2748 24.4747 92.5681 23.856C92.8615 23.2373 93.2828 22.7547 93.8321 22.408C94.3815 22.056 95.0375 21.88 95.8001 21.88C96.4721 21.88 97.0481 22.0107 97.5281 22.272C98.0135 22.5333 98.3868 22.9173 98.6481 23.424C98.9095 23.9253 99.0401 24.5467 99.0401 25.288C99.0401 25.4853 99.0348 25.664 99.0241 25.824C99.0188 25.9787 99.0028 26.136 98.9761 26.296L97.8161 25.712C97.8268 25.6267 97.8321 25.5467 97.8321 25.472C97.8375 25.392 97.8401 25.3147 97.8401 25.24C97.8401 24.488 97.6535 23.9173 97.2801 23.528C96.9068 23.1333 96.4188 22.936 95.8161 22.936C95.3308 22.936 94.9121 23.0613 94.5601 23.312C94.2135 23.5573 93.9441 23.8987 93.7521 24.336C93.5601 24.7733 93.4641 25.272 93.4641 25.832V26.016C93.4641 26.6347 93.5708 27.168 93.7841 27.616C93.9975 28.064 94.3201 28.4107 94.7521 28.656C95.1895 28.896 95.7441 29.016 96.4161 29.016C96.6668 29.016 96.9308 28.9973 97.2081 28.96C97.4908 28.9173 97.7681 28.8533 98.0401 28.768C98.3175 28.6827 98.5815 28.5707 98.8321 28.432L98.8881 29.624C98.6855 29.736 98.4508 29.8347 98.1841 29.92C97.9175 30 97.6241 30.0613 97.3041 30.104C96.9841 30.152 96.6455 30.176 96.2881 30.176ZM92.6801 26.296V25.352L98.1681 25.304L98.9761 25.608V26.296H92.6801ZM108.676 30.176C107.615 30.176 106.751 29.9947 106.084 29.632C105.423 29.264 104.935 28.7493 104.62 28.088C104.311 27.4213 104.156 26.6453 104.156 25.76C104.156 25.536 104.156 25.248 104.156 24.896C104.156 24.5387 104.156 24.144 104.156 23.712C104.156 23.28 104.156 22.8453 104.156 22.408C104.156 21.688 104.156 21.032 104.156 20.44C104.156 19.8427 104.156 19.2267 104.156 18.592H105.596C105.596 19.2267 105.596 19.8427 105.596 20.44C105.596 21.032 105.596 21.688 105.596 22.408V25.616C105.596 26.304 105.697 26.896 105.9 27.392C106.103 27.888 106.428 28.2693 106.876 28.536C107.329 28.7973 107.929 28.928 108.676 28.928C109.428 28.928 110.025 28.7973 110.468 28.536C110.916 28.2693 111.239 27.888 111.436 27.392C111.633 26.896 111.732 26.2987 111.732 25.6V22.408C111.732 21.688 111.732 21.032 111.732 20.44C111.732 19.8427 111.732 19.2267 111.732 18.592H113.172C113.172 19.2267 113.172 19.8427 113.172 20.44C113.172 21.032 113.172 21.688 113.172 22.408C113.172 22.8453 113.172 23.2827 113.172 23.72C113.172 24.152 113.172 24.5467 113.172 24.904C113.172 25.2613 113.172 25.5467 113.172 25.76C113.172 26.6453 113.015 27.4213 112.7 28.088C112.385 28.7493 111.897 29.264 111.236 29.632C110.575 29.9947 109.721 30.176 108.676 30.176ZM118.132 30.176C117.801 30.176 117.468 30.1493 117.132 30.096C116.801 30.0427 116.489 29.9733 116.196 29.888C115.902 29.7973 115.646 29.696 115.428 29.584L115.532 28.344C115.777 28.4827 116.038 28.6053 116.316 28.712C116.598 28.8133 116.889 28.8933 117.188 28.952C117.492 29.0053 117.796 29.032 118.1 29.032C118.393 29.032 118.662 29 118.908 28.936C119.158 28.8667 119.356 28.744 119.5 28.568C119.649 28.3867 119.724 28.1253 119.724 27.784C119.724 27.56 119.66 27.376 119.532 27.232C119.404 27.088 119.188 26.9573 118.884 26.84C118.585 26.7227 118.18 26.592 117.668 26.448C117.246 26.3307 116.87 26.1867 116.54 26.016C116.209 25.8453 115.948 25.616 115.756 25.328C115.569 25.04 115.476 24.664 115.476 24.2C115.476 23.48 115.71 22.9147 116.18 22.504C116.654 22.088 117.292 21.88 118.092 21.88C118.422 21.88 118.742 21.9093 119.052 21.968C119.361 22.0213 119.646 22.0933 119.908 22.184C120.169 22.2747 120.396 22.3707 120.588 22.472L120.476 23.712C120.22 23.552 119.956 23.4213 119.684 23.32C119.412 23.2133 119.15 23.1387 118.9 23.096C118.649 23.048 118.428 23.024 118.236 23.024C118.017 23.024 117.798 23.056 117.58 23.12C117.366 23.1787 117.188 23.2907 117.044 23.456C116.9 23.616 116.828 23.848 116.828 24.152C116.828 24.3707 116.878 24.5547 116.98 24.704C117.081 24.8533 117.257 24.9867 117.508 25.104C117.758 25.2213 118.105 25.344 118.548 25.472C119.076 25.6267 119.526 25.7893 119.9 25.96C120.278 26.1253 120.569 26.344 120.772 26.616C120.974 26.888 121.076 27.264 121.076 27.744C121.076 28.208 120.974 28.624 120.772 28.992C120.569 29.3547 120.252 29.6427 119.82 29.856C119.388 30.0693 118.825 30.176 118.132 30.176ZM125.405 30.176C124.562 30.176 123.946 29.9333 123.557 29.448C123.168 28.9627 122.973 28.2587 122.973 27.336C122.973 26.984 122.973 26.68 122.973 26.424C122.973 26.1627 122.973 25.9067 122.973 25.656C122.973 25.1813 122.973 24.7467 122.973 24.352C122.973 23.952 122.973 23.568 122.973 23.2C122.973 22.832 122.973 22.4533 122.973 22.064L124.293 22.008C124.293 22.5947 124.293 23.1707 124.293 23.736C124.293 24.3013 124.293 24.896 124.293 25.52V27.024C124.293 27.6533 124.408 28.1333 124.637 28.464C124.866 28.7893 125.274 28.952 125.861 28.952C126.202 28.952 126.514 28.88 126.797 28.736C127.08 28.5867 127.338 28.392 127.573 28.152C127.808 27.912 128.021 27.6453 128.213 27.352V25.52C128.213 24.896 128.213 24.3093 128.213 23.76C128.213 23.2107 128.213 22.6453 128.213 22.064H129.533C129.533 22.6453 129.533 23.216 129.533 23.776C129.533 24.336 129.533 24.9627 129.533 25.656V26.496C129.533 27.152 129.533 27.752 129.533 28.296C129.533 28.84 129.533 29.408 129.533 30H128.381L128.333 28.6H128.189C128.024 28.84 127.808 29.0827 127.541 29.328C127.28 29.568 126.97 29.7707 126.613 29.936C126.256 30.096 125.853 30.176 125.405 30.176ZM133.966 30.16C133.492 30.16 133.076 30.0693 132.718 29.888C132.361 29.7013 132.081 29.4373 131.878 29.096C131.681 28.7547 131.582 28.344 131.582 27.864C131.582 27.432 131.66 27.0693 131.814 26.776C131.969 26.4773 132.172 26.2347 132.422 26.048C132.673 25.8613 132.95 25.7173 133.254 25.616C133.558 25.5093 133.862 25.4293 134.166 25.376L136.654 24.944C136.676 24.4053 136.604 24 136.438 23.728C136.278 23.4507 136.052 23.264 135.758 23.168C135.465 23.072 135.14 23.024 134.782 23.024C134.601 23.024 134.406 23.0373 134.198 23.064C133.99 23.0907 133.769 23.1333 133.534 23.192C133.305 23.2453 133.062 23.3147 132.806 23.4C132.55 23.4853 132.281 23.5893 131.998 23.712L131.926 22.504C132.118 22.424 132.334 22.3467 132.574 22.272C132.82 22.1973 133.078 22.1307 133.35 22.072C133.628 22.008 133.91 21.96 134.198 21.928C134.486 21.896 134.777 21.88 135.07 21.88C135.662 21.88 136.172 21.9733 136.598 22.16C137.03 22.3467 137.361 22.64 137.59 23.04C137.82 23.44 137.934 23.9627 137.934 24.608C137.934 24.8533 137.934 25.1653 137.934 25.544C137.934 25.9227 137.934 26.2827 137.934 26.624V27.656C137.934 28.0187 137.934 28.3893 137.934 28.768C137.934 29.1413 137.934 29.552 137.934 30H136.734L136.662 28.872H136.534C136.369 29.0853 136.161 29.2907 135.91 29.488C135.66 29.6853 135.369 29.848 135.038 29.976C134.713 30.0987 134.356 30.16 133.966 30.16ZM134.35 29.064C134.633 29.064 134.916 29.0053 135.198 28.888C135.481 28.7707 135.745 28.5973 135.99 28.368C136.241 28.1333 136.452 27.84 136.622 27.488L136.63 25.776C136.545 25.824 136.43 25.872 136.286 25.92C136.148 25.968 135.937 26.024 135.654 26.088C135.377 26.1467 134.99 26.2213 134.494 26.312C134.19 26.3653 133.921 26.4533 133.686 26.576C133.452 26.6933 133.265 26.856 133.126 27.064C132.993 27.2667 132.926 27.5147 132.926 27.808C132.926 28.2667 133.062 28.592 133.334 28.784C133.612 28.9707 133.95 29.064 134.35 29.064ZM140.485 30C140.485 29.408 140.485 28.84 140.485 28.296C140.485 27.752 140.485 27.152 140.485 26.496V22.104C140.485 21.432 140.485 20.7787 140.485 20.144C140.485 19.5093 140.485 18.8907 140.485 18.288L141.805 18.128C141.805 18.7733 141.805 19.4213 141.805 20.072C141.805 20.7173 141.805 21.3947 141.805 22.104V26.496C141.805 27.152 141.805 27.752 141.805 28.296C141.805 28.84 141.805 29.408 141.805 30H140.485Z" fill="white"/>
<path d="M164 14C169.52 14 174 18.48 174 24C174 29.52 169.52 34 164 34C158.48 34 154 29.52 154 24C154 18.48 158.48 14 164 14ZM164 23H160V25H164V28L168 24L164 20V23Z" fill="white"/>
</svg>
