<svg width="496" height="129" viewBox="0 0 496 129" fill="none" xmlns="http://www.w3.org/2000/svg">
<path d="M0 20.473H39.5149C49.6081 20.473 58.1873 23.9047 65.2525 30.7681C72.2168 37.6315 75.699 46.0593 75.699 56.0515C75.699 66.0438 72.2168 74.4716 65.2525 81.335C58.1873 88.1984 49.6081 91.6301 39.5149 91.6301H20.8929V126.452H0V20.473ZM20.8929 72.0997H39.5149C43.9559 72.0997 47.6399 70.5857 50.5669 67.5578C53.4939 64.4289 54.9575 60.5935 54.9575 56.0515C54.9575 51.4087 53.4939 47.5733 50.5669 44.5453C47.6399 41.5173 43.9559 40.0034 39.5149 40.0034H20.8929V72.0997Z" fill="black"/>
<path d="M138.354 91.6301V50.7526H157.884V126.452H138.354V117.973C133.711 125.039 126.192 128.571 115.796 128.571C107.519 128.571 100.656 125.796 95.2057 120.244C89.8563 114.592 87.1816 106.921 87.1816 97.2318V50.7526H106.712V94.8094C106.712 99.7551 108.024 103.59 110.648 106.316C113.373 109.041 117.057 110.403 121.7 110.403C126.848 110.403 130.885 108.839 133.812 105.71C136.84 102.48 138.354 97.7869 138.354 91.6301Z" fill="black"/>
<path d="M193.197 72.2511C193.197 75.4809 197.789 78.2566 206.974 80.578C210.204 81.2845 213.131 82.1425 215.755 83.1518C218.379 84.0602 221.004 85.4228 223.628 87.2395C226.353 88.9554 228.473 91.2768 229.986 94.2038C231.5 97.1309 232.257 100.512 232.257 104.347C232.257 112.119 229.33 118.125 223.476 122.364C217.622 126.502 210.406 128.571 201.826 128.571C186.283 128.571 175.685 122.566 170.033 110.555L186.989 101.017C189.311 107.577 194.257 110.858 201.826 110.858C208.791 110.858 212.273 108.688 212.273 104.347C212.273 101.118 207.681 98.342 198.496 96.0206C195.064 95.1122 192.137 94.2038 189.715 93.2954C187.292 92.3871 184.668 91.0749 181.842 89.3591C179.016 87.5423 176.846 85.2713 175.332 82.5462C173.919 79.7201 173.212 76.4398 173.212 72.7053C173.212 65.2364 175.937 59.3823 181.388 55.1432C186.939 50.8031 193.802 48.633 201.978 48.633C208.135 48.633 213.736 50.0461 218.783 52.8722C223.83 55.5973 227.816 59.5337 230.743 64.6812L214.09 73.7651C211.667 68.6176 207.63 66.0438 201.978 66.0438C199.455 66.0438 197.335 66.6494 195.619 67.8606C194.004 68.9708 193.197 70.4343 193.197 72.2511Z" fill="black"/>
<path d="M286.906 48.633C295.284 48.633 302.096 51.4087 307.345 56.9599C312.795 62.6121 315.52 70.2829 315.52 79.9724V126.452H295.99V82.3948C295.99 77.4491 294.628 73.6137 291.902 70.8885C289.278 68.1634 285.645 66.8008 281.002 66.8008C275.854 66.8008 271.766 68.4157 268.738 71.6455C265.811 74.7744 264.348 79.4173 264.348 85.5742V126.452H244.818V20.473H264.348V59.2309C268.991 52.1657 276.51 48.633 286.906 48.633Z" fill="black"/>
<path d="M325 46.8007L326.749 45.9846C339.75 39.9176 352.171 32.6805 363.861 24.3627L364.854 23.6558V126.452H343.961V53.2541L327.366 56.7741L325 46.8007Z" fill="black"/>
<path d="M402.661 72.251C402.661 75.4809 407.254 78.2565 416.438 80.5779C419.668 81.2845 422.595 82.1424 425.22 83.1517C427.844 84.0601 430.468 85.4227 433.092 87.2394C435.817 88.9553 437.937 91.2767 439.451 94.2038C440.965 97.1308 441.722 100.512 441.722 104.347C441.722 112.119 438.795 118.125 432.941 122.364C427.087 126.502 419.87 128.571 411.291 128.571C395.747 128.571 385.15 122.566 379.497 110.555L396.454 101.017C398.775 107.577 403.721 110.858 411.291 110.858C418.255 110.858 421.737 108.687 421.737 104.347C421.737 101.118 417.145 98.342 407.96 96.0205C404.528 95.1121 401.601 94.2038 399.179 93.2954C396.757 92.387 394.132 91.0749 391.306 89.359C388.48 87.5422 386.31 85.2713 384.796 82.5461C383.383 79.72 382.677 76.4397 382.677 72.7052C382.677 65.2363 385.402 59.3822 390.852 55.1431C396.403 50.803 403.267 48.633 411.442 48.633C417.599 48.633 423.201 50.046 428.247 52.8721C433.294 55.5973 437.281 59.5336 440.208 64.6812L423.554 73.765C421.132 68.6175 417.095 66.0437 411.442 66.0437C408.919 66.0437 406.799 66.6493 405.084 67.8605C403.469 68.9708 402.661 70.4343 402.661 72.251Z" fill="black"/>
<path d="M495.364 50.7525V69.5259H478.256V101.017C478.256 103.641 478.912 105.559 480.224 106.77C481.536 107.981 483.454 108.687 485.977 108.889C488.501 108.99 491.63 108.94 495.364 108.738V126.452C482.142 127.965 472.705 126.754 467.053 122.818C461.501 118.781 458.726 111.514 458.726 101.017V69.5259H445.554V50.7525H458.726V35.4613L478.256 29.5568V50.7525H495.364Z" fill="black"/>
<circle cx="389.828" cy="11.828" r="11.828" fill="#FE5151"/>
</svg>
