<svg width="729" height="247" viewBox="0 0 729 247" fill="none" xmlns="http://www.w3.org/2000/svg">
<rect width="729" height="247" fill="#1D1D39"/>
<path fill-rule="evenodd" clip-rule="evenodd" d="M557.091 86C558.768 86 560.393 86.2216 561.938 86.637V97.5648C560.95 97.1803 559.874 96.9694 558.75 96.9694C553.889 96.9694 549.949 100.91 549.949 105.77C549.949 105.813 549.949 105.856 549.95 105.898H549.949V108.959H561.938H562.241L560.262 120.184H549.949V121.826L549.949 121.826V159.98H538.469V120.184H529.03V108.959H538.469V104.622C538.469 94.3376 546.807 86 557.091 86Z" fill="white"/>
<path fill-rule="evenodd" clip-rule="evenodd" d="M587.813 120.184L589.793 108.959H579.286V98.5H567.806V141.612H567.808C567.807 141.697 567.806 141.782 567.806 141.867C567.806 152.152 576.144 160.49 586.429 160.49C587.25 160.49 588.059 160.437 588.852 160.334V149.488C588.6 149.509 588.345 149.52 588.087 149.52C583.354 149.52 579.494 145.785 579.294 141.102H579.286V120.184H587.813Z" fill="white"/>
<path fill-rule="evenodd" clip-rule="evenodd" d="M500.332 160.49C514.773 160.49 526.48 148.84 526.48 134.469C526.48 120.099 514.773 108.449 500.332 108.449C485.89 108.449 474.184 120.099 474.184 134.469C474.184 148.84 485.89 160.49 500.332 160.49ZM500.459 149.265C508.208 149.265 514.49 142.641 514.49 134.469C514.49 126.298 508.208 119.673 500.459 119.673C492.71 119.673 486.429 126.298 486.429 134.469C486.429 142.641 492.71 149.265 500.459 149.265Z" fill="white"/>
<path fill-rule="evenodd" clip-rule="evenodd" d="M254.286 109.906V115.934C250.375 111.511 244.969 108.449 238.342 108.449C223.901 108.449 213.47 120.099 213.47 134.469C213.47 148.84 223.901 160.49 238.342 160.49C244.969 160.49 250.375 157.428 254.286 153.005V159.98H265.766V107.882L254.286 109.906ZM239.745 149.265C249.439 149.265 253.776 141.612 253.776 134.469C253.776 127.327 249.057 119.673 239.745 119.673C231.996 119.673 225.715 126.298 225.715 134.469C225.715 142.641 231.996 149.265 239.745 149.265Z" fill="white"/>
<path fill-rule="evenodd" clip-rule="evenodd" d="M193.316 131.76V89.6992L206.582 87.3601V143.778V159.98V162.531L156.071 116.77V158.84L142.806 161.179V104.752V88.551V86L193.316 131.76Z" fill="white"/>
<path fill-rule="evenodd" clip-rule="evenodd" d="M443.58 137.911C440.351 136.987 437.34 135.106 435.111 132.566L435.111 132.566C432.798 129.93 431.326 126.585 431.326 122.862C431.326 114.902 437.959 108.449 448.036 108.449C457.302 108.449 464.645 114.012 465.653 123.639L454.03 125.688C453.989 121.059 451.272 119.929 448.546 119.929C445.798 119.929 443.571 120.439 443.571 123.245C443.571 124.795 445.357 128.092 451.862 129.112L451.99 129.132V129.158C452.525 129.196 453.053 129.259 453.572 129.344C461.368 130.626 467.296 137.059 467.296 144.801C467.296 153.466 459.872 160.49 450.714 160.49C440.105 160.49 430.749 155.932 429.755 143.153L441.388 141.102H441.658C441.658 146.332 445.745 149.138 449.056 149.138C452.367 149.138 455.051 148.372 455.051 145.184C455.051 142.323 453.474 141.16 443.58 137.911Z" fill="white"/>
<path fill-rule="evenodd" clip-rule="evenodd" d="M385.664 89.5444V159.98H397.143V134.789L397.83 135.77L403.261 143.526L414.782 159.98H429.107L410.424 133.297L410.579 133.074L410.424 132.852L427.153 108.959H413.139L403.417 122.845L398.645 129.66L397.143 131.804V87.5203L385.664 89.5444Z" fill="white"/>
<path fill-rule="evenodd" clip-rule="evenodd" d="M291.257 157.961L270.457 108.959H282.928L297.493 143.272L312.058 108.959H324.529L302.872 159.98H292.114L291.257 157.962L291.257 157.961Z" fill="white"/>
<path fill-rule="evenodd" clip-rule="evenodd" d="M377.5 134.469C377.5 135.593 377.428 136.7 377.29 137.786H365.156H347.398H337.803C339.23 144.361 344.812 149.265 351.48 149.265C356.026 149.265 360.068 146.985 362.632 143.449L374.981 145.627C370.783 154.415 361.781 160.49 351.352 160.49C336.911 160.49 325.204 148.84 325.204 134.469C325.204 120.099 336.911 108.449 351.352 108.449C365.793 108.449 377.5 120.099 377.5 134.469ZM338.934 127.837C341.24 122.996 345.992 119.673 351.48 119.673C356.967 119.673 361.719 122.996 364.025 127.837H338.934Z" fill="white"/>
</svg>
